<svg xmlns="http://www.w3.org/2000/svg" height="800" width="1200" viewBox="-44.25015 -27.0085 383.5013 162.051"><g fill="#ed1c2e"><path d="M228.248 56.928c1.493-.059 5.186.432 13.16.727 8.338.314 9.997-6.138 9.653-10.145-8.505 1.826-10.518 2.308-17.854 2.308-7.72 0-17.215 2.15-17.393 8.927-.166 6.737 8.643 8.24 13.209 9.536 1.277.295 1.759 1.326.914 1.984-1.955 1.571-6.374 3.634-6.904 7.316-.746 5.215 4.007 9.3 10.018 9.183 8.014-.177 16.862-3.575 25.367-13.779 2.405-2.877 5.106-7.758 6.766-9.899.394-.775 1.553-1.139 2.053-1.08 1.513.334 3.663 1.483 3.379 3.133-.442 2.524-7.316 10.391-2.74 15.134 2.809 2.907 9.89 5.02 15.526.924 5.284-3.84 3.418-7.347 1.326-7.61-1.493-.178-5.667 5.066-9.045 1.324-2.81-3.103 3.859-9.525 5.186-11.824 1.915-3.3-5.55-5.794-8.691-9.889-2.014-2.7 3.23-11-3.34-13.189-2.15-.717-8.8 3.29-6.433 14.751-3.015 11.343-26.005 31.2-29.07 23.196-.745-1.954 1.238-5.195 6.493-6.295 8.69-1.817 8.014-7.189 3.869-7.729-6.512-.845-8.328-.845-16.097-2.66-3.064-.328-2.966-4.403.648-4.344M102.482 69.43c-2.092 2.121-4.508 5.048-4.831 7.415-.707 5.126 1.935 9.653 8.445 9.535 7.003-.117 9.3-5.185 21.007-12.305 3.27-1.994 7.326-5.353 9.006-5.628.639 0 1.58.206 1.522 1.444-1.002 4.664-2.082 7.797-.884 11.784.864 2.8 4.576 4.567 7.257 2.534 4.459-3.378 4.527-5.304 10.303-12.914.972-1.258 4.478-7.042 6.108-6.275 1.346.647.972 2.514.727 3.986-1.218 7.13-4.312 18.385 9.77 16.646 3.35-.412 6.04-2.67 3.497-5.067-1.531-1.443-3.25-.402-5.186-.845-4.527-1.04 6.669-21.645 1.326-25.465-7.503-5.372-14.446 4.145-19.671 11.107-2.063 2.74-3.575 1.542-4.92-2.328-1.483-4.29-10.41-1.148-15.527 1.493-8.161 4.213-23.255 18.315-24.66 11.284-.245-1.218 1.729-3.929 5.392-5.265 4.312-1.562 9.173-2.956 9.173-5.548 0-2.004-1.208-3.408-2.504-3.34-6.001.334-12.983 1.925-20.987-.284-1.816-.01-2.593-4.597 2.809-3.987 1.424.157 4.606.373 16.705.608 8.515.177 8.7-6.206 7.572-9.595-7.091 2.111-10.695 1.876-18.198 1.876-7.856 0-18.463 1.08-18.011 8.662.383 6.383 9.339 8.131 13.975 8.651 1.326-.114 1.748 1.153.785 1.821"/><path d="M76.654 53.068c.717-2.65 2.288-3.25 4.34-3.742 3.064-1.002 7.376-2.337 9.998-2.818 6.669-1.64 8.574-1.257 9.429-5.863.608-3.21-.776-4.753-.776-4.753S85.12 40.44 82.204 41.245c-2.534 1.09-2.053-1.57-2.053-1.57s-.363 1.687 1.208-5.187C86.11 13.55 83.322 7.971 79.55 4.79c-9.574-7.905-44.527 8.515-69.521 28.245-8.328 7.247-13.16 8.937-7.73 14.73 4.833 4.822 7.966 1.198 7.966 1.198 4.586-3.614 14.485-13.749 20.997-18.58 9.28-6.875 22.097-16.784 33.439-19.437 9.006-2.288 11.706.364 10.499 9.546-.697 7.857-6.757 25.584-6.757 25.584s-9.291 4.144-12.07 5.185c-2.17.806-4.458.246-4.714 5.186-.107 5.313 3.094 3.32 5.264 2.495 1.65-.629 5.588-2.485 7.052-3.094 1.09-.845 2.298-.118 1.689 1.443-1.081 3.506-3.045 9.173-6.757 17.383-4.704 11.226-13.16 26.556-14.25 30.415.138 2.534 2.906 2.897 6.56 2.946 3.359-.255 4.92-2.583 4.92-2.583s4.37-9.389 11.099-25.946c4.88-12.02 8.062-21.948 9.417-26.437" clip-rule="evenodd" fill-rule="evenodd"/><path d="M196.792 57.468c-5.234-1.513-9.811 4.685-11.156 10.204-1.218 5.038-.57 11.805 3.978 12.67 3.663.706 7.896-2.486 8.986-8.408.294-1.58.962-6.629 1.168-7.935 1.247-8.014 2.18-11.53 2.18-11.53 4.37-16.754 14.85-49.329 17.697-51.234 2.967-1.965 11.117-2.309 8.555 4.497-3.958 10.567-8.574 19.937-12.748 32.98-4.9 15.28-14.357 39.832-5.912 40.913 3.958.51 5.549-3.144 7.926-1.287 3.624 2.838-.344 7.975-7.326 8.652-9.595.344-9.398-5.283-13.661-2.858-13.67 7.76-22.087-3.093-19.405-16.705 2.308-11.647 11.283-19.887 21.31-14.839 0 0 2.564 1.276 2.349 3.447-.17 1.678-1.426 2.022-3.941 1.433"/></g><path d="M292.938 51.812c-1.385 1.385-3.054 2.082-5.01 2.082-1.963 0-3.633-.697-4.997-2.082-1.365-1.375-2.053-3.045-2.053-5.009 0-1.944.688-3.604 2.072-4.989 1.375-1.365 3.034-2.063 4.979-2.063 1.955 0 3.624.697 5.009 2.063 1.385 1.375 2.063 3.045 2.063 4.99-.001 1.953-.68 3.623-2.063 5.008m-9.32-9.3c-1.188 1.187-1.788 2.611-1.788 4.301s.6 3.143 1.777 4.331c1.179 1.188 2.633 1.787 4.33 1.787 1.7 0 3.135-.599 4.322-1.787 1.198-1.188 1.788-2.642 1.788-4.33 0-1.69-.59-3.114-1.788-4.303-1.188-1.198-2.632-1.787-4.321-1.787-1.688 0-3.132.588-4.32 1.787m4.184.392c.972 0 1.669.1 2.13.285.807.324 1.209.982 1.209 1.954 0 .697-.246 1.198-.756 1.522-.275.177-.648.305-1.13.383.599.09 1.04.344 1.326.756.284.413.422.815.422 1.188v.58c0 .167.01.363.02.57.01.205.029.333.069.401l.049.09h-1.277c0-.02-.01-.05-.01-.07a.28.28 0 01-.02-.088l-.03-.246v-.618c0-.884-.244-1.483-.745-1.768-.295-.167-.806-.246-1.542-.246h-1.1v3.035h-1.336v-7.729h2.72zm1.482 1.247c-.354-.196-.913-.284-1.68-.284h-1.187v2.77h1.257c.579 0 1.02-.05 1.316-.177.55-.196.814-.6.814-1.179 0-.569-.176-.942-.52-1.13" fill="#ed1c2e"/></svg>